<?xml version="1.0" encoding="UTF-8" standalone="no"?>
<!-- Created with Inkscape (http://www.inkscape.org/) -->

<svg
   version="1.1"
   id="svg9"
   width="1122.52"
   height="793.70667"
   viewBox="0 0 1122.52 793.70667"
   sodipodi:docname="logo1.svg"
   inkscape:version="1.2.2 (732a01da63, 2022-12-09)"
   xmlns:inkscape="http://www.inkscape.org/namespaces/inkscape"
   xmlns:sodipodi="http://sodipodi.sourceforge.net/DTD/sodipodi-0.dtd"
   xmlns="http://www.w3.org/2000/svg"
   xmlns:svg="http://www.w3.org/2000/svg">
  <defs
     id="defs13">
    <clipPath
       clipPathUnits="userSpaceOnUse"
       id="clipPath25">
      <path
         d="M 0,595.28 H 841.89 V 0 H 0 Z"
         id="path23" />
    </clipPath>
  </defs>
  <sodipodi:namedview
     id="namedview11"
     pagecolor="#ffffff"
     bordercolor="#000000"
     borderopacity="0.25"
     inkscape:showpageshadow="2"
     inkscape:pageopacity="0.0"
     inkscape:pagecheckerboard="0"
     inkscape:deskcolor="#d1d1d1"
     showgrid="false"
     inkscape:zoom="1.0255678"
     inkscape:cx="561.64009"
     inkscape:cy="318.84776"
     inkscape:window-width="2560"
     inkscape:window-height="1017"
     inkscape:window-x="1272"
     inkscape:window-y="-8"
     inkscape:window-maximized="1"
     inkscape:current-layer="g17">
    <inkscape:page
       x="0"
       y="0"
       id="page15"
       width="1122.52"
       height="793.70667" />
  </sodipodi:namedview>
  <g
     id="g17"
     inkscape:groupmode="layer"
     inkscape:label="Page 1"
     transform="matrix(1.3333333,0,0,-1.3333333,0,793.70667)">
    <g
       id="g19">
      <g
         id="g21"
         clip-path="url(#clipPath25)">
        <g
           id="g27"
           transform="translate(134.0601,108.3279)">
          <path
             d="m 0,0 c 3.444,20.721 7.277,41.387 10.221,62.179 2.941,20.774 4.992,41.675 7.354,61.841 -5.133,1.624 -9.502,3.006 -13.816,4.371 -3.723,-2.15 -7.471,-5.68 -13,-7.505 -2.22,-0.734 -4.441,1.268 -4.441,1.268 0,0 -2.815,-0.524 -4.011,-0.279 -2.14,0.439 -4.279,1.094 -6.264,1.998 -1.125,0.513 -1.794,2.075 -2.923,2.523 -8.2,3.246 -16.433,6.413 -24.739,9.375 -1.291,0.459 -3.003,-0.414 -4.516,-0.39 -2.187,0.035 -5.276,-0.537 -6.406,0.649 -7.012,7.365 -11.219,16.113 -11.045,26.568 0.004,0.294 -0.047,0.784 0.091,0.851 4.93,2.42 1.95,7.991 4.515,11.401 0.562,0.747 0.547,2.27 0.248,3.271 -2.992,10.009 -6.104,19.981 -9.166,29.968 -0.562,1.831 -1.344,3.657 -1.52,5.533 -0.723,7.653 -1.274,15.323 -1.843,22.99 -0.838,11.308 5.516,19.256 12.845,26.538 5.341,5.307 8.748,11.559 11.318,18.525 2.701,7.316 5.674,14.548 8.901,21.647 3.084,6.788 6.556,13.406 10.041,20.002 1.637,3.101 3.906,5.871 5.526,8.98 2.235,4.293 4.054,8.8 6.209,13.137 0.683,1.374 1.666,2.759 2.862,3.686 4.022,3.121 6.861,6.749 7.169,12.112 0.788,13.756 1.728,27.503 2.623,41.252 0.046,0.716 0.23,1.423 0.35,2.134 0.413,-0.013 0.827,-0.025 1.24,-0.038 -0.303,-5.775 -0.566,-11.553 -0.921,-17.325 -0.608,-9.908 -1.42,-19.807 -1.795,-29.723 -0.078,-2.053 1.461,-4.138 2.104,-6.253 0.903,-2.972 1.944,-5.945 2.392,-8.996 0.328,-2.239 -0.926,-4.872 -0.19,-6.853 1.318,-3.551 -0.847,-4.726 -3.073,-5.752 -2.86,-1.319 -3.924,-3.296 -3.634,-6.3 0.112,-1.171 0.15,-2.408 -0.096,-3.547 -1.652,-7.63 -0.987,-13.735 6.616,-18.776 6.131,-4.066 7.596,-11.755 7.904,-19.047 0.07,-1.657 -0.415,-4.084 -1.552,-4.915 -4.932,-3.602 -4.761,-9.078 -5.925,-14.104 -0.365,-1.578 -0.625,-3.243 -1.335,-4.667 -2.159,-4.33 -4.515,-8.562 -7.045,-13.302 4.658,-3.126 8.941,-6.001 13.225,-8.875 -0.244,-0.384 -0.487,-0.768 -0.73,-1.152 -5.617,0.354 -8.88,5.121 -14.023,8.35 -1.815,-4.357 3.601,-7.751 0.919,-11.525 10.31,-1.853 10.203,-1.889 12.07,-11.658 0.279,-1.459 2.12,-3.45 3.528,-3.729 9.99,-1.974 12.274,-9.289 13.16,-17.869 0.515,-4.987 1.342,-9.942 1.944,-14.302 6.05,0 11.916,-0.42 17.683,0.153 3.597,0.358 7.025,1.345 9.724,-1.701 1.183,-1.334 2.056,-3.18 2.445,-4.932 0.792,-3.571 1.161,-7.235 2.689,-10.723 1.931,3.945 3.704,7.976 5.828,11.814 3.861,6.976 10.407,7.343 15.306,1.003 5.108,-6.611 5.423,-14.263 0.722,-20.968 -4.17,-5.95 -6.908,-12.243 -9.018,-19.401 -2.741,-9.296 -8.015,-14.888 -18.248,-11.352 -1.646,-0.686 -2.914,-1.215 -4.182,-1.744 0.177,1.245 0.768,2.607 0.455,3.715 -1.09,3.856 -2.022,7.887 -3.944,11.333 -1.262,2.265 -4.123,3.639 -6.447,5.559 -0.101,-8.593 6.993,-16.471 4.068,-25.21 -0.565,1.366 -1.38,3.334 -2.194,5.303 -2.481,-0.73 -4.647,-1.368 -7.335,-2.16 C 15.477,83.09 10.034,41.194 0,0"
             style="fill:#000000;fill-opacity:1;fill-rule:nonzero;stroke:#000000;stroke-width:1;stroke-linecap:butt;stroke-linejoin:miter;stroke-miterlimit:10;stroke-dasharray:none;stroke-opacity:1"
             id="path29" />
        </g>
        <g
           id="g31"
           transform="translate(233.5693,407.6545)">
          <path
             d="M 0,0 H -61.56 V -56.992 H 7.049 v -17.12 H -82.002 V 83.962 H 3.525 V 66.84 H -61.56 V 16.885 H 0 Z"
             style="fill:#000000;fill-opacity:1;fill-rule:nonzero;stroke:none"
             id="path33" />
        </g>
        <g
           id="g35"
           transform="translate(233.5693,407.6545)">
          <path
             d="M 0,0 H -61.56 V -56.992 H 7.049 v -17.12 H -82.002 V 83.962 H 3.525 V 66.84 H -61.56 V 16.885 H 0 Z"
             style="fill:none;stroke:#000000;stroke-width:1;stroke-linecap:butt;stroke-linejoin:miter;stroke-miterlimit:10;stroke-dasharray:none;stroke-opacity:1"
             id="path37" />
        </g>
        <g
           id="g39"
           transform="translate(310.1895,447.9426)">
          <path
             d="M 0,0 V -101.597 H -13.506 V 0 Z"
             style="fill:#000000;fill-opacity:1;fill-rule:nonzero;stroke:none"
             id="path41" />
        </g>
        <g
           id="g43"
           transform="translate(310.1895,447.9426)">
          <path
             d="M 0,0 V -101.597 H -13.506 V 0 Z"
             style="fill:none;stroke:#000000;stroke-width:1;stroke-linecap:butt;stroke-linejoin:miter;stroke-miterlimit:10;stroke-dasharray:none;stroke-opacity:1"
             id="path45" />
        </g>
        <g
           id="g47"
           transform="translate(472.4209,350.8679)">
          <path
             d="m 0,0 c -6.054,-2.11 -18.008,-5.578 -32.135,-5.578 -15.835,0 -28.876,3.92 -39.121,13.416 -9.004,8.442 -14.594,22.008 -14.594,37.835 0.156,30.298 21.579,52.457 56.665,52.457 12.109,0 21.58,-2.563 26.081,-4.673 l -3.26,-10.702 c -5.589,2.412 -12.574,4.371 -23.132,4.371 -25.46,0 -42.071,-15.375 -42.071,-40.85 0,-25.776 15.991,-41 40.363,-41 8.85,0 14.903,1.205 18.009,2.713 v 30.298 h -21.269 v 10.551 l 34.464,0 z"
             style="fill:#000000;fill-opacity:1;fill-rule:nonzero;stroke:none"
             id="path49" />
        </g>
        <g
           id="g51"
           transform="translate(472.4209,350.8679)">
          <path
             d="m 0,0 c -6.054,-2.11 -18.008,-5.578 -32.135,-5.578 -15.835,0 -28.876,3.92 -39.121,13.416 -9.004,8.442 -14.594,22.008 -14.594,37.835 0.156,30.298 21.579,52.457 56.665,52.457 12.109,0 21.58,-2.563 26.081,-4.673 l -3.26,-10.702 c -5.589,2.412 -12.574,4.371 -23.132,4.371 -25.46,0 -42.071,-15.375 -42.071,-40.85 0,-25.776 15.991,-41 40.363,-41 8.85,0 14.903,1.205 18.009,2.713 v 30.298 h -21.269 v 10.551 l 34.464,0 z"
             style="fill:none;stroke:#000000;stroke-width:1;stroke-linecap:butt;stroke-linejoin:miter;stroke-miterlimit:10;stroke-dasharray:none;stroke-opacity:1"
             id="path53" />
        </g>
        <g
           id="g55"
           transform="translate(606.2461,393.9787)">
          <path
             d="M 0,0 H -40.674 V -36.629 H 4.658 V -47.633 H -54.18 V 53.963 H 2.329 V 42.96 H -40.674 V 10.853 l 40.674,0 z"
             style="fill:#000000;fill-opacity:1;fill-rule:nonzero;stroke:none"
             id="path57" />
        </g>
        <g
           id="g59"
           transform="translate(606.2461,393.9787)">
          <path
             d="M 0,0 H -40.674 V -36.629 H 4.658 V -47.633 H -54.18 V 53.963 H 2.329 V 42.96 H -40.674 V 10.853 l 40.674,0 z"
             style="fill:none;stroke:#000000;stroke-width:1;stroke-linecap:butt;stroke-linejoin:miter;stroke-miterlimit:10;stroke-dasharray:none;stroke-opacity:1"
             id="path61" />
        </g>
        <g
           id="g63"
           transform="translate(700.9492,400.3088)">
          <path
             d="m 0,0 h 13.816 c 14.437,0 23.597,7.688 23.597,19.294 0,13.115 -9.78,18.843 -24.062,18.994 C 6.831,38.288 2.172,37.685 0,37.082 Z m -13.506,46.277 c 6.83,1.356 16.611,2.11 25.924,2.11 14.439,0 23.754,-2.563 30.274,-8.29 5.278,-4.523 8.227,-11.457 8.227,-19.295 0,-13.415 -8.694,-22.309 -19.716,-25.927 v -0.451 c 8.074,-2.715 12.886,-9.95 15.37,-20.501 3.415,-14.17 5.898,-23.967 8.072,-27.886 H 40.674 c -1.709,2.864 -4.036,11.606 -6.986,24.269 -3.105,14.018 -8.695,19.294 -20.959,19.746 H 0 v -44.015 h -13.506 z"
             style="fill:#000000;fill-opacity:1;fill-rule:nonzero;stroke:none"
             id="path65" />
        </g>
        <g
           id="g67"
           transform="translate(700.9492,400.3088)">
          <path
             d="m 0,0 h 13.816 c 14.437,0 23.597,7.688 23.597,19.294 0,13.115 -9.78,18.843 -24.062,18.994 C 6.831,38.288 2.172,37.685 0,37.082 Z m -13.506,46.277 c 6.83,1.356 16.611,2.11 25.924,2.11 14.439,0 23.754,-2.563 30.274,-8.29 5.278,-4.523 8.227,-11.457 8.227,-19.295 0,-13.415 -8.694,-22.309 -19.716,-25.927 v -0.451 c 8.074,-2.715 12.886,-9.95 15.37,-20.501 3.415,-14.17 5.898,-23.967 8.072,-27.886 H 40.674 c -1.709,2.864 -4.036,11.606 -6.986,24.269 -3.105,14.018 -8.695,19.294 -20.959,19.746 H 0 v -44.015 h -13.506 z"
             style="fill:none;stroke:#000000;stroke-width:1;stroke-linecap:butt;stroke-linejoin:miter;stroke-miterlimit:10;stroke-dasharray:none;stroke-opacity:1"
             id="path69" />
        </g>
        <g
           id="g71"
           transform="translate(258.2144,483.3093)">
          <path
             d="m 0,0 c 0.622,-0.125 1.403,-0.175 2.349,-0.175 3.419,0 5.504,1.28 5.504,3.613 C 7.853,5.67 5.798,6.75 2.672,6.75 1.433,6.75 0.488,6.674 0,6.575 Z m -2.832,8.155 c 1.369,0.177 3.16,0.326 5.439,0.326 2.802,0 4.853,-0.501 6.157,-1.405 1.204,-0.804 1.925,-2.032 1.925,-3.538 0,-1.531 -0.587,-2.735 -1.697,-3.613 C 7.494,-1.304 5.051,-1.932 2.279,-1.932 1.433,-1.932 0.652,-1.906 0,-1.781 v -6.775 h -2.832 z"
             style="fill:#000000;fill-opacity:1;fill-rule:nonzero;stroke:none"
             id="path73" />
        </g>
        <g
           id="g75"
           transform="translate(258.2144,483.3093)">
          <path
             d="m 0,0 c 0.622,-0.125 1.403,-0.175 2.349,-0.175 3.419,0 5.504,1.28 5.504,3.613 C 7.853,5.67 5.798,6.75 2.672,6.75 1.433,6.75 0.488,6.674 0,6.575 Z m -2.832,8.155 c 1.369,0.177 3.16,0.326 5.439,0.326 2.802,0 4.853,-0.501 6.157,-1.405 1.204,-0.804 1.925,-2.032 1.925,-3.538 0,-1.531 -0.587,-2.735 -1.697,-3.613 C 7.494,-1.304 5.051,-1.932 2.279,-1.932 1.433,-1.932 0.652,-1.906 0,-1.781 v -6.775 h -2.832 z"
             style="fill:none;stroke:#000000;stroke-width:1;stroke-linecap:butt;stroke-linejoin:miter;stroke-miterlimit:10;stroke-dasharray:none;stroke-opacity:1"
             id="path77" />
        </g>
        <g
           id="g79"
           transform="translate(287.9409,483.737)">
          <path
             d="M 0,0 H 2.901 C 5.932,0 7.853,1.28 7.853,3.211 7.853,5.394 5.798,6.348 2.802,6.372 1.433,6.372 0.458,6.272 0,6.173 Z m -2.832,7.703 c 1.434,0.225 3.484,0.35 5.439,0.35 3.031,0 4.987,-0.425 6.355,-1.379 1.105,-0.754 1.727,-1.908 1.727,-3.212 0,-2.234 -1.826,-3.712 -4.14,-4.317 V -0.928 C 8.241,-1.382 9.251,-2.586 9.773,-4.341 10.49,-6.7 11.013,-8.332 11.47,-8.984 H 8.535 C 8.176,-8.507 7.688,-7.052 7.071,-4.943 6.419,-2.61 5.245,-1.731 2.672,-1.658 H 0 v -7.326 h -2.832 z"
             style="fill:#000000;fill-opacity:1;fill-rule:nonzero;stroke:none"
             id="path81" />
        </g>
        <g
           id="g83"
           transform="translate(287.9409,483.737)">
          <path
             d="M 0,0 H 2.901 C 5.932,0 7.853,1.28 7.853,3.211 7.853,5.394 5.798,6.348 2.802,6.372 1.433,6.372 0.458,6.272 0,6.173 Z m -2.832,7.703 c 1.434,0.225 3.484,0.35 5.439,0.35 3.031,0 4.987,-0.425 6.355,-1.379 1.105,-0.754 1.727,-1.908 1.727,-3.212 0,-2.234 -1.826,-3.712 -4.14,-4.317 V -0.928 C 8.241,-1.382 9.251,-2.586 9.773,-4.341 10.49,-6.7 11.013,-8.332 11.47,-8.984 H 8.535 C 8.176,-8.507 7.688,-7.052 7.071,-4.943 6.419,-2.61 5.245,-1.731 2.672,-1.658 H 0 v -7.326 h -2.832 z"
             style="fill:none;stroke:#000000;stroke-width:1;stroke-linecap:butt;stroke-linejoin:miter;stroke-miterlimit:10;stroke-dasharray:none;stroke-opacity:1"
             id="path85" />
        </g>
        <g
           id="g87"
           transform="translate(325.9473,481.779)">
          <path
             d="M 0,0 -2.15,4.867 C -2.638,5.973 -2.965,6.976 -3.29,7.954 H -3.354 C -3.682,6.95 -4.041,5.921 -4.463,4.893 L -6.613,0 Z M -7.201,-1.708 -9.48,-7.026 h -2.931 l 7.46,16.912 h 3.419 L 5.962,-7.026 H 2.931 l -2.344,5.318 z"
             style="fill:#000000;fill-opacity:1;fill-rule:nonzero;stroke:none"
             id="path89" />
        </g>
        <g
           id="g91"
           transform="translate(325.9473,481.779)">
          <path
             d="M 0,0 -2.15,4.867 C -2.638,5.973 -2.965,6.976 -3.29,7.954 H -3.354 C -3.682,6.95 -4.041,5.921 -4.463,4.893 L -6.613,0 Z M -7.201,-1.708 -9.48,-7.026 h -2.931 l 7.46,16.912 h 3.419 L 5.962,-7.026 H 2.931 l -2.344,5.318 z"
             style="fill:none;stroke:#000000;stroke-width:1;stroke-linecap:butt;stroke-linejoin:miter;stroke-miterlimit:10;stroke-dasharray:none;stroke-opacity:1"
             id="path93" />
        </g>
        <g
           id="g95"
           transform="translate(362.3823,475.3059)">
          <path
             d="m 0,0 c -1.04,-0.402 -3.125,-0.803 -5.797,-0.803 -6.191,0 -10.849,3.011 -10.849,8.556 0,5.295 4.658,8.882 11.466,8.882 2.737,0 4.464,-0.451 5.215,-0.753 l -0.687,-1.781 c -1.075,0.401 -2.607,0.702 -4.429,0.702 -5.15,0 -8.569,-2.534 -8.569,-6.974 0,-4.141 3.095,-6.802 8.44,-6.802 1.727,0 3.483,0.277 4.623,0.704 z"
             style="fill:#000000;fill-opacity:1;fill-rule:nonzero;stroke:none"
             id="path97" />
        </g>
        <g
           id="g99"
           transform="translate(362.3823,475.3059)">
          <path
             d="m 0,0 c -1.04,-0.402 -3.125,-0.803 -5.797,-0.803 -6.191,0 -10.849,3.011 -10.849,8.556 0,5.295 4.658,8.882 11.466,8.882 2.737,0 4.464,-0.451 5.215,-0.753 l -0.687,-1.781 c -1.075,0.401 -2.607,0.702 -4.429,0.702 -5.15,0 -8.569,-2.534 -8.569,-6.974 0,-4.141 3.095,-6.802 8.44,-6.802 1.727,0 3.483,0.277 4.623,0.704 z"
             style="fill:none;stroke:#000000;stroke-width:1;stroke-linecap:butt;stroke-linejoin:miter;stroke-miterlimit:10;stroke-dasharray:none;stroke-opacity:1"
             id="path101" />
        </g>
        <g
           id="g103"
           transform="translate(389.6958,482.6833)">
          <path
             d="M 0,0 H -8.535 V -6.098 H 0.98 V -7.93 H -11.366 V 8.981 H 0.492 V 7.151 H -8.535 V 1.805 l 8.535,0 z"
             style="fill:#000000;fill-opacity:1;fill-rule:nonzero;stroke:none"
             id="path105" />
        </g>
        <g
           id="g107"
           transform="translate(389.6958,482.6833)">
          <path
             d="M 0,0 H -8.535 V -6.098 H 0.98 V -7.93 H -11.366 V 8.981 H 0.492 V 7.151 H -8.535 V 1.805 l 8.535,0 z"
             style="fill:none;stroke:#000000;stroke-width:1;stroke-linecap:butt;stroke-linejoin:miter;stroke-miterlimit:10;stroke-dasharray:none;stroke-opacity:1"
             id="path109" />
        </g>
        <g
           id="g111"
           transform="translate(428.4668,474.7531)">
          <path
             d="m 0,0 -5.573,16.912 h 3 L 0.03,8.355 C 0.682,6.249 1.269,4.14 1.662,2.508 h 0.065 c 0.358,1.681 1.04,3.689 1.791,5.873 l 2.931,8.531 h 2.966 l 2.672,-8.58 c 0.617,-2.008 1.205,-4.015 1.528,-5.798 h 0.065 c 0.458,1.856 1.075,3.738 1.761,5.847 l 2.902,8.531 h 2.896 L 15.019,0 H 12.053 L 9.285,8.807 C 8.599,10.965 8.142,12.621 7.853,14.328 H 7.783 C 7.395,12.646 6.907,10.991 6.091,8.807 L 2.961,0 Z"
             style="fill:#000000;fill-opacity:1;fill-rule:nonzero;stroke:none"
             id="path113" />
        </g>
        <g
           id="g115"
           transform="translate(428.4668,474.7531)">
          <path
             d="m 0,0 -5.573,16.912 h 3 L 0.03,8.355 C 0.682,6.249 1.269,4.14 1.662,2.508 h 0.065 c 0.358,1.681 1.04,3.689 1.791,5.873 l 2.931,8.531 h 2.966 l 2.672,-8.58 c 0.617,-2.008 1.205,-4.015 1.528,-5.798 h 0.065 c 0.458,1.856 1.075,3.738 1.761,5.847 l 2.902,8.531 h 2.896 L 15.019,0 H 12.053 L 9.285,8.807 C 8.599,10.965 8.142,12.621 7.853,14.328 H 7.783 C 7.395,12.646 6.907,10.991 6.091,8.807 L 2.961,0 Z"
             style="fill:none;stroke:#000000;stroke-width:1;stroke-linecap:butt;stroke-linejoin:miter;stroke-miterlimit:10;stroke-dasharray:none;stroke-opacity:1"
             id="path117" />
        </g>
        <g
           id="g119"
           transform="translate(469.7324,474.7531)">
          <path
             d="m 0,0 v 7.177 l -6.941,9.735 h 3.224 l 3.095,-4.667 C 0.225,10.965 0.876,9.938 1.562,8.757 h 0.065 c 0.617,1.105 1.369,2.208 2.215,3.488 l 3.16,4.667 h 3.225 L 2.866,7.201 V 0 Z"
             style="fill:#000000;fill-opacity:1;fill-rule:nonzero;stroke:none"
             id="path121" />
        </g>
        <g
           id="g123"
           transform="translate(469.7324,474.7531)">
          <path
             d="m 0,0 v 7.177 l -6.941,9.735 h 3.224 l 3.095,-4.667 C 0.225,10.965 0.876,9.938 1.562,8.757 h 0.065 c 0.617,1.105 1.369,2.208 2.215,3.488 l 3.16,4.667 h 3.225 L 2.866,7.201 V 0 Z"
             style="fill:none;stroke:#000000;stroke-width:1;stroke-linecap:butt;stroke-linejoin:miter;stroke-miterlimit:10;stroke-dasharray:none;stroke-opacity:1"
             id="path125" />
        </g>
        <g
           id="g127"
           transform="translate(494.0537,477.4123)">
          <path
             d="m 0,0 c 1.27,-0.602 3.126,-1.103 5.081,-1.103 2.901,0 4.594,1.179 4.594,2.886 0,1.58 -1.17,2.482 -4.136,3.361 -3.583,0.98 -5.798,2.409 -5.798,4.794 0,2.633 2.832,4.591 7.102,4.591 2.249,0 3.876,-0.402 4.852,-0.827 l -0.782,-1.783 c -0.716,0.302 -2.18,0.803 -4.17,0.803 -2.996,0 -4.136,-1.379 -4.136,-2.534 0,-1.58 1.334,-2.359 4.365,-3.261 3.713,-1.106 5.603,-2.485 5.603,-4.969 0,-2.61 -2.508,-4.868 -7.688,-4.868 -2.119,0 -4.429,0.477 -5.604,1.079 z"
             style="fill:#000000;fill-opacity:1;fill-rule:nonzero;stroke:none"
             id="path129" />
        </g>
        <g
           id="g131"
           transform="translate(494.0537,477.4123)">
          <path
             d="m 0,0 c 1.27,-0.602 3.126,-1.103 5.081,-1.103 2.901,0 4.594,1.179 4.594,2.886 0,1.58 -1.17,2.482 -4.136,3.361 -3.583,0.98 -5.798,2.409 -5.798,4.794 0,2.633 2.832,4.591 7.102,4.591 2.249,0 3.876,-0.402 4.852,-0.827 l -0.782,-1.783 c -0.716,0.302 -2.18,0.803 -4.17,0.803 -2.996,0 -4.136,-1.379 -4.136,-2.534 0,-1.58 1.334,-2.359 4.365,-3.261 3.713,-1.106 5.603,-2.485 5.603,-4.969 0,-2.61 -2.508,-4.868 -7.688,-4.868 -2.119,0 -4.429,0.477 -5.604,1.079 z"
             style="fill:none;stroke:#000000;stroke-width:1;stroke-linecap:butt;stroke-linejoin:miter;stroke-miterlimit:10;stroke-dasharray:none;stroke-opacity:1"
             id="path133" />
        </g>
        <g
           id="g135"
           transform="translate(524.6309,483.1086)">
          <path
             d="m 0,0 c 0,-3.613 2.538,-6.849 7.002,-6.849 4.498,0 7.037,3.186 7.037,7.024 0,3.363 -2.279,6.877 -7.002,6.877 C 2.344,7.052 0,3.715 0,0 m 17.039,0.276 c 0,-5.821 -4.598,-8.908 -10.201,-8.908 -5.798,0 -9.868,3.463 -9.868,8.582 0,5.371 4.33,8.883 10.196,8.883 5.992,0 9.873,-3.539 9.873,-8.557"
             style="fill:#000000;fill-opacity:1;fill-rule:nonzero;stroke:none"
             id="path137" />
        </g>
        <g
           id="g139"
           transform="translate(524.6309,483.1086)">
          <path
             d="m 0,0 c 0,-3.613 2.538,-6.849 7.002,-6.849 4.498,0 7.037,3.186 7.037,7.024 0,3.363 -2.279,6.877 -7.002,6.877 C 2.344,7.052 0,3.715 0,0 Z m 17.039,0.276 c 0,-5.821 -4.598,-8.908 -10.201,-8.908 -5.798,0 -9.868,3.463 -9.868,8.582 0,5.371 4.33,8.883 10.196,8.883 5.992,0 9.873,-3.539 9.873,-8.557 z"
             style="fill:none;stroke:#000000;stroke-width:1;stroke-linecap:butt;stroke-linejoin:miter;stroke-miterlimit:10;stroke-dasharray:none;stroke-opacity:1"
             id="path141" />
        </g>
        <g
           id="g143"
           transform="translate(557.7461,491.6648)">
          <path
             d="m 0,0 h 2.832 v -8.155 h 0.1 c 0.587,0.652 1.17,1.254 1.726,1.807 L 11.367,0 h 3.518 l -7.948,-7.177 8.57,-9.735 h -3.355 l -7.235,8.306 -2.085,-1.856 v -6.45 H 0 Z"
             style="fill:#000000;fill-opacity:1;fill-rule:nonzero;stroke:none"
             id="path145" />
        </g>
        <g
           id="g147"
           transform="translate(557.7461,491.6648)">
          <path
             d="m 0,0 h 2.832 v -8.155 h 0.1 c 0.587,0.652 1.17,1.254 1.726,1.807 L 11.367,0 h 3.518 l -7.948,-7.177 8.57,-9.735 h -3.355 l -7.235,8.306 -2.085,-1.856 v -6.45 H 0 Z"
             style="fill:none;stroke:#000000;stroke-width:1;stroke-linecap:butt;stroke-linejoin:miter;stroke-miterlimit:10;stroke-dasharray:none;stroke-opacity:1"
             id="path149" />
        </g>
        <g
           id="g151"
           transform="translate(588.9707,483.1086)">
          <path
             d="m 0,0 c 0,-3.613 2.538,-6.849 7.002,-6.849 4.498,0 7.037,3.186 7.037,7.024 0,3.363 -2.279,6.877 -7.002,6.877 C 2.344,7.052 0,3.715 0,0 m 17.039,0.276 c 0,-5.821 -4.598,-8.908 -10.201,-8.908 -5.798,0 -9.868,3.463 -9.868,8.582 0,5.37 4.33,8.883 10.196,8.883 5.992,0 9.873,-3.539 9.873,-8.557"
             style="fill:#000000;fill-opacity:1;fill-rule:nonzero;stroke:none"
             id="path153" />
        </g>
        <g
           id="g155"
           transform="translate(588.9707,483.1086)">
          <path
             d="m 0,0 c 0,-3.613 2.538,-6.849 7.002,-6.849 4.498,0 7.037,3.186 7.037,7.024 0,3.363 -2.279,6.877 -7.002,6.877 C 2.344,7.052 0,3.715 0,0 Z m 17.039,0.276 c 0,-5.821 -4.598,-8.908 -10.201,-8.908 -5.798,0 -9.868,3.463 -9.868,8.582 0,5.37 4.33,8.883 10.196,8.883 5.992,0 9.873,-3.539 9.873,-8.557 z"
             style="fill:none;stroke:#000000;stroke-width:1;stroke-linecap:butt;stroke-linejoin:miter;stroke-miterlimit:10;stroke-dasharray:none;stroke-opacity:1"
             id="path157" />
        </g>
        <g
           id="g159"
           transform="translate(632.8008,495.5544)">
          <path
             d="M 0,0 -4.17,-2.91 H -6.479 L -3.483,0 Z m -11.107,-18.142 c 1.269,-0.602 3.129,-1.103 5.081,-1.103 2.901,0 4.592,1.179 4.592,2.886 0,1.58 -1.17,2.482 -4.134,3.36 -3.584,0.98 -5.798,2.409 -5.798,4.794 0,2.634 2.832,4.592 7.101,4.592 2.249,0 3.876,-0.402 4.852,-0.827 l -0.781,-1.783 c -0.717,0.302 -2.18,0.803 -4.17,0.803 -2.996,0 -4.136,-1.379 -4.136,-2.534 0,-1.58 1.334,-2.359 4.364,-3.262 3.713,-1.105 5.604,-2.484 5.604,-4.969 0,-2.609 -2.508,-4.867 -7.689,-4.867 -2.119,0 -4.428,0.477 -5.603,1.079 z"
             style="fill:#000000;fill-opacity:1;fill-rule:nonzero;stroke:none"
             id="path161" />
        </g>
        <g
           id="g163"
           transform="translate(632.8008,495.5544)">
          <path
             d="M 0,0 -4.17,-2.91 H -6.479 L -3.483,0 Z m -11.107,-18.142 c 1.269,-0.602 3.129,-1.103 5.081,-1.103 2.901,0 4.592,1.179 4.592,2.886 0,1.58 -1.17,2.482 -4.134,3.36 -3.584,0.98 -5.798,2.409 -5.798,4.794 0,2.634 2.832,4.592 7.101,4.592 2.249,0 3.876,-0.402 4.852,-0.827 l -0.781,-1.783 c -0.717,0.302 -2.18,0.803 -4.17,0.803 -2.996,0 -4.136,-1.379 -4.136,-2.534 0,-1.58 1.334,-2.359 4.364,-3.262 3.713,-1.105 5.604,-2.484 5.604,-4.969 0,-2.609 -2.508,-4.867 -7.689,-4.867 -2.119,0 -4.428,0.477 -5.603,1.079 z"
             style="fill:none;stroke:#000000;stroke-width:1;stroke-linecap:butt;stroke-linejoin:miter;stroke-miterlimit:10;stroke-dasharray:none;stroke-opacity:1"
             id="path165" />
        </g>
        <g
           id="g167"
           transform="translate(665.8857,475.3054)">
          <path
             d="m 0,0 c -1.04,-0.401 -3.125,-0.803 -5.798,-0.803 -6.19,0 -10.848,3.011 -10.848,8.556 0,5.295 4.658,8.883 11.466,8.883 2.737,0 4.463,-0.451 5.215,-0.754 l -0.686,-1.78 c -1.076,0.401 -2.608,0.701 -4.43,0.701 -5.15,0 -8.569,-2.534 -8.569,-6.974 0,-4.14 3.095,-6.801 8.44,-6.801 1.727,0 3.483,0.276 4.623,0.703 z"
             style="fill:#000000;fill-opacity:1;fill-rule:nonzero;stroke:none"
             id="path169" />
        </g>
        <g
           id="g171"
           transform="translate(665.8857,475.3054)">
          <path
             d="m 0,0 c -1.04,-0.401 -3.125,-0.803 -5.798,-0.803 -6.19,0 -10.848,3.011 -10.848,8.556 0,5.295 4.658,8.883 11.466,8.883 2.737,0 4.463,-0.451 5.215,-0.754 l -0.686,-1.78 c -1.076,0.401 -2.608,0.701 -4.43,0.701 -5.15,0 -8.569,-2.534 -8.569,-6.974 0,-4.14 3.095,-6.801 8.44,-6.801 1.727,0 3.483,0.276 4.623,0.703 z"
             style="fill:none;stroke:#000000;stroke-width:1;stroke-linecap:butt;stroke-linejoin:miter;stroke-miterlimit:10;stroke-dasharray:none;stroke-opacity:1"
             id="path173" />
        </g>
        <path
           d="m 684.665,474.753 h -2.832 v 16.912 h 2.832 z"
           style="fill:#000000;fill-opacity:1;fill-rule:nonzero;stroke:#000000;stroke-width:1;stroke-linecap:butt;stroke-linejoin:miter;stroke-miterlimit:10;stroke-dasharray:none;stroke-opacity:1"
           id="path175" />
        <g
           id="g177"
           transform="translate(703.7412,483.1086)">
          <path
             d="m 0,0 c 0,-3.613 2.538,-6.849 7.002,-6.849 4.498,0 7.037,3.186 7.037,7.024 0,3.363 -2.279,6.877 -7.002,6.877 C 2.344,7.052 0,3.714 0,0 m 17.039,0.276 c 0,-5.821 -4.598,-8.908 -10.201,-8.908 -5.798,0 -9.868,3.462 -9.868,8.582 0,5.37 4.33,8.883 10.196,8.883 5.992,0 9.873,-3.539 9.873,-8.557"
             style="fill:#000000;fill-opacity:1;fill-rule:nonzero;stroke:none"
             id="path179" />
        </g>
        <g
           id="g181"
           transform="translate(703.7412,483.1086)">
          <path
             d="m 0,0 c 0,-3.613 2.538,-6.849 7.002,-6.849 4.498,0 7.037,3.186 7.037,7.024 0,3.363 -2.279,6.877 -7.002,6.877 C 2.344,7.052 0,3.714 0,0 Z m 17.039,0.276 c 0,-5.821 -4.598,-8.908 -10.201,-8.908 -5.798,0 -9.868,3.462 -9.868,8.582 0,5.37 4.33,8.883 10.196,8.883 5.992,0 9.873,-3.539 9.873,-8.557 z"
             style="fill:none;stroke:#000000;stroke-width:1;stroke-linecap:butt;stroke-linejoin:miter;stroke-miterlimit:10;stroke-dasharray:none;stroke-opacity:1"
             id="path183" />
        </g>
        <g
           id="g185"
           transform="translate(740.4395,474.7531)">
          <path
             d="m 0,0 -5.573,16.912 h 3.001 L 0.03,8.355 C 0.683,6.249 1.27,4.14 1.662,2.508 h 0.065 c 0.358,1.681 1.041,3.689 1.792,5.873 l 2.931,8.531 h 2.966 l 2.672,-8.58 c 0.617,-2.008 1.204,-4.015 1.528,-5.798 h 0.065 c 0.458,1.856 1.075,3.738 1.761,5.847 l 2.901,8.531 h 2.896 L 15.019,0 H 12.053 L 9.286,8.806 C 8.6,10.965 8.142,12.621 7.853,14.328 H 7.784 C 7.396,12.646 6.907,10.991 6.092,8.806 L 2.962,0 Z"
             style="fill:#000000;fill-opacity:1;fill-rule:nonzero;stroke:none"
             id="path187" />
        </g>
        <g
           id="g189"
           transform="translate(740.4395,474.7531)">
          <path
             d="m 0,0 -5.573,16.912 h 3.001 L 0.03,8.355 C 0.683,6.249 1.27,4.14 1.662,2.508 h 0.065 c 0.358,1.681 1.041,3.689 1.792,5.873 l 2.931,8.531 h 2.966 l 2.672,-8.58 c 0.617,-2.008 1.204,-4.015 1.528,-5.798 h 0.065 c 0.458,1.856 1.075,3.738 1.761,5.847 l 2.901,8.531 h 2.896 L 15.019,0 H 12.053 L 9.286,8.806 C 8.6,10.965 8.142,12.621 7.853,14.328 H 7.784 C 7.396,12.646 6.907,10.991 6.092,8.806 L 2.962,0 Z"
             style="fill:none;stroke:#000000;stroke-width:1;stroke-linecap:butt;stroke-linejoin:miter;stroke-miterlimit:10;stroke-dasharray:none;stroke-opacity:1"
             id="path191" />
        </g>
        <g
           id="g193"
           transform="translate(788.1855,482.6833)">
          <path
             d="M 0,0 H -8.535 V -6.098 H 0.979 V -7.93 H -11.367 V 8.981 H 0.492 V 7.151 H -8.535 V 1.804 l 8.535,0 z"
             style="fill:#000000;fill-opacity:1;fill-rule:nonzero;stroke:none"
             id="path195" />
        </g>
        <g
           id="g197"
           transform="translate(788.1855,482.6833)">
          <path
             d="M 0,0 H -8.535 V -6.098 H 0.979 V -7.93 H -11.367 V 8.981 H 0.492 V 7.151 H -8.535 V 1.804 l 8.535,0 z"
             style="fill:none;stroke:#000000;stroke-width:1;stroke-linecap:butt;stroke-linejoin:miter;stroke-miterlimit:10;stroke-dasharray:none;stroke-opacity:1"
             id="path199" />
        </g>
        <g
           id="g201"
           transform="translate(256.8984,457.4841)">
          <path
             d="M 0,0 H 530.725 V -120.681 L 0,-120.68 Z"
             style="fill:none;stroke:#000000;stroke-width:3;stroke-linecap:butt;stroke-linejoin:miter;stroke-miterlimit:10;stroke-dasharray:none;stroke-opacity:1"
             id="path203" />
        </g>
      </g>
    </g>
  </g>
</svg>
